<svg xmlns="http://www.w3.org/2000/svg" xmlns:xlink="http://www.w3.org/1999/xlink" width="500" zoomAndPan="magnify" viewBox="0 0 375 165.000002" height="220" preserveAspectRatio="xMidYMid meet" version="1.0"><defs><g/><clipPath id="755d43f088"><path d="M 2 23 L 373.871094 23 L 373.871094 134 L 2 134 Z M 2 23 " clip-rule="nonzero"/></clipPath><clipPath id="c3bfa1068b"><rect x="0" width="372" y="0" height="111"/></clipPath></defs><g clip-path="url(#755d43f088)"><g transform="matrix(1, 0, 0, 1, 2, 23)"><g clip-path="url(#c3bfa1068b)"><g fill="#eeede9" fill-opacity="1"><g transform="translate(0.972936, 77.945032)"><g><path d="M 33.015625 -8.046875 C 32.503906 -6.160156 32.25 -4.90625 32.25 -4.28125 C 32.25 -3.9375 32.347656 -3.648438 32.546875 -3.421875 C 32.742188 -3.191406 32.984375 -3.078125 33.265625 -3.078125 C 33.953125 -3.078125 34.953125 -3.660156 36.265625 -4.828125 C 37.578125 -5.992188 38.800781 -7.4375 39.9375 -9.15625 L 41.140625 -8.046875 C 39.367188 -5.472656 37.3125 -3.316406 34.96875 -1.578125 C 32.632812 0.160156 30.703125 1.03125 29.171875 1.03125 C 28.085938 1.03125 27.226562 0.628906 26.59375 -0.171875 C 25.96875 -0.972656 25.65625 -1.882812 25.65625 -2.90625 C 25.65625 -3.820312 25.769531 -4.804688 26 -5.859375 C 26.226562 -6.910156 26.425781 -7.640625 26.59375 -8.046875 L 28.5625 -14.71875 L 28.390625 -14.875 C 25.660156 -10.832031 22.671875 -7.171875 19.421875 -3.890625 C 16.171875 -0.609375 13.0625 1.03125 10.09375 1.03125 C 7.695312 1.03125 5.828125 -0.078125 4.484375 -2.296875 C 3.148438 -4.523438 2.484375 -6.984375 2.484375 -9.671875 C 2.484375 -14.003906 3.804688 -18.476562 6.453125 -23.09375 C 9.109375 -27.707031 12.414062 -31.523438 16.375 -34.546875 C 20.34375 -37.578125 24.148438 -39.09375 27.796875 -39.09375 C 30.421875 -39.09375 32.644531 -37.894531 34.46875 -35.5 L 39.171875 -51.921875 C 39.679688 -53.742188 39.9375 -55.054688 39.9375 -55.859375 C 39.9375 -56.710938 39.59375 -57.25 38.90625 -57.46875 C 38.226562 -57.695312 37.320312 -57.8125 36.1875 -57.8125 L 33.78125 -57.734375 L 33.703125 -59.015625 L 46.703125 -61.328125 L 48.234375 -61.328125 Z M 16.671875 -29.421875 C 14.617188 -26.515625 12.9375 -23.304688 11.625 -19.796875 C 10.320312 -16.296875 9.671875 -13.085938 9.671875 -10.171875 C 9.671875 -8.003906 10.050781 -6.40625 10.8125 -5.375 C 11.582031 -4.351562 12.625 -3.84375 13.9375 -3.84375 C 16.101562 -3.84375 18.671875 -5.4375 21.640625 -8.625 C 24.609375 -11.820312 27.175781 -15.628906 29.34375 -20.046875 C 31.507812 -24.472656 32.59375 -28.367188 32.59375 -31.734375 C 32.59375 -33.671875 32.035156 -35.109375 30.921875 -36.046875 C 29.804688 -36.992188 28.648438 -37.46875 27.453125 -37.46875 C 25.796875 -37.46875 24.015625 -36.738281 22.109375 -35.28125 C 20.203125 -33.820312 18.390625 -31.867188 16.671875 -29.421875 Z M 16.671875 -29.421875 "/></g></g></g><g fill="#eeede9" fill-opacity="1"><g transform="translate(37.750214, 77.945032)"><g><path d="M 20.359375 -56.1875 C 21.554688 -56.1875 22.582031 -55.757812 23.4375 -54.90625 C 24.289062 -54.050781 24.71875 -53.054688 24.71875 -51.921875 C 24.71875 -50.722656 24.289062 -49.695312 23.4375 -48.84375 C 22.582031 -47.988281 21.554688 -47.5625 20.359375 -47.5625 C 19.210938 -47.5625 18.210938 -47.988281 17.359375 -48.84375 C 16.503906 -49.695312 16.078125 -50.722656 16.078125 -51.921875 C 16.078125 -53.054688 16.503906 -54.050781 17.359375 -54.90625 C 18.210938 -55.757812 19.210938 -56.1875 20.359375 -56.1875 Z M 11.96875 -7.609375 C 11.519531 -6.128906 11.296875 -5.101562 11.296875 -4.53125 C 11.296875 -3.625 11.78125 -3.171875 12.75 -3.171875 C 13.425781 -3.171875 14.378906 -3.695312 15.609375 -4.75 C 16.835938 -5.800781 18.109375 -7.351562 19.421875 -9.40625 L 20.78125 -8.546875 C 18.90625 -5.640625 16.796875 -3.316406 14.453125 -1.578125 C 12.117188 0.160156 9.984375 1.03125 8.046875 1.03125 C 6.898438 1.03125 6.023438 0.660156 5.421875 -0.078125 C 4.828125 -0.828125 4.53125 -1.828125 4.53125 -3.078125 C 4.53125 -3.992188 4.703125 -5.050781 5.046875 -6.25 L 11.890625 -29.765625 C 12.285156 -31.191406 12.484375 -32.191406 12.484375 -32.765625 C 12.484375 -33.503906 12.226562 -34.15625 11.71875 -34.71875 C 11.207031 -35.289062 10.4375 -35.578125 9.40625 -35.578125 C 9.007812 -35.578125 7.925781 -35.4375 6.15625 -35.15625 L 6.578125 -36.609375 L 19.59375 -39.09375 L 21.046875 -39.09375 Z M 11.96875 -7.609375 "/></g></g></g><g fill="#eeede9" fill-opacity="1"><g transform="translate(54.941449, 77.945032)"><g><path d="M 11.890625 -9.578125 C 11.492188 -8.210938 11.191406 -7.113281 10.984375 -6.28125 C 10.785156 -5.457031 10.6875 -4.757812 10.6875 -4.1875 C 10.6875 -3.789062 10.785156 -3.492188 10.984375 -3.296875 C 11.191406 -3.097656 11.378906 -3 11.546875 -3 C 12.234375 -3 13.398438 -3.820312 15.046875 -5.46875 C 16.703125 -7.125 17.726562 -8.296875 18.125 -8.984375 L 19.5 -8.21875 C 17.675781 -5.707031 15.679688 -3.535156 13.515625 -1.703125 C 11.347656 0.117188 9.320312 1.03125 7.4375 1.03125 C 5.15625 1.03125 4.015625 -0.3125 4.015625 -3 C 4.015625 -4.082031 4.242188 -5.421875 4.703125 -7.015625 C 5.160156 -8.609375 5.472656 -9.660156 5.640625 -10.171875 L 17.796875 -52.4375 C 18.128906 -53.738281 18.296875 -54.765625 18.296875 -55.515625 C 18.296875 -56.253906 18.039062 -56.847656 17.53125 -57.296875 C 17.019531 -57.753906 16.363281 -57.984375 15.5625 -57.984375 C 14.476562 -57.984375 13.507812 -57.898438 12.65625 -57.734375 L 12.65625 -59.359375 L 25.234375 -61.328125 L 26.6875 -61.328125 L 13 -13.421875 C 12.425781 -11.367188 12.054688 -10.085938 11.890625 -9.578125 Z M 11.890625 -9.578125 "/></g></g></g><g fill="#eeede9" fill-opacity="1"><g transform="translate(72.132685, 77.945032)"><g><path d="M 11.890625 -9.578125 C 11.492188 -8.210938 11.191406 -7.113281 10.984375 -6.28125 C 10.785156 -5.457031 10.6875 -4.757812 10.6875 -4.1875 C 10.6875 -3.789062 10.785156 -3.492188 10.984375 -3.296875 C 11.191406 -3.097656 11.378906 -3 11.546875 -3 C 12.234375 -3 13.398438 -3.820312 15.046875 -5.46875 C 16.703125 -7.125 17.726562 -8.296875 18.125 -8.984375 L 19.5 -8.21875 C 17.675781 -5.707031 15.679688 -3.535156 13.515625 -1.703125 C 11.347656 0.117188 9.320312 1.03125 7.4375 1.03125 C 5.15625 1.03125 4.015625 -0.3125 4.015625 -3 C 4.015625 -4.082031 4.242188 -5.421875 4.703125 -7.015625 C 5.160156 -8.609375 5.472656 -9.660156 5.640625 -10.171875 L 17.796875 -52.4375 C 18.128906 -53.738281 18.296875 -54.765625 18.296875 -55.515625 C 18.296875 -56.253906 18.039062 -56.847656 17.53125 -57.296875 C 17.019531 -57.753906 16.363281 -57.984375 15.5625 -57.984375 C 14.476562 -57.984375 13.507812 -57.898438 12.65625 -57.734375 L 12.65625 -59.359375 L 25.234375 -61.328125 L 26.6875 -61.328125 L 13 -13.421875 C 12.425781 -11.367188 12.054688 -10.085938 11.890625 -9.578125 Z M 11.890625 -9.578125 "/></g></g></g><g fill="#eeede9" fill-opacity="1"><g transform="translate(89.32392, 77.945032)"><g><path d="M 26.59375 -39.09375 C 28.132812 -39.09375 29.53125 -38.5625 30.78125 -37.5 C 32.039062 -36.445312 32.8125 -34.976562 33.09375 -33.09375 L 33.265625 -33.09375 L 34.640625 -38.140625 L 41.390625 -39.09375 L 32.59375 -8.21875 C 32.53125 -8.101562 32.382812 -7.671875 32.15625 -6.921875 C 31.925781 -6.179688 31.8125 -5.441406 31.8125 -4.703125 C 31.8125 -4.242188 31.925781 -3.882812 32.15625 -3.625 C 32.382812 -3.375 32.640625 -3.25 32.921875 -3.25 C 33.671875 -3.25 34.613281 -3.757812 35.75 -4.78125 C 36.894531 -5.8125 37.976562 -7.238281 39 -9.0625 L 40.28125 -8.21875 C 38.738281 -5.363281 36.785156 -3.109375 34.421875 -1.453125 C 32.054688 0.203125 29.960938 1.03125 28.140625 1.03125 C 27.109375 1.03125 26.335938 0.660156 25.828125 -0.078125 C 25.316406 -0.828125 25.0625 -1.742188 25.0625 -2.828125 C 25.0625 -3.566406 25.21875 -4.773438 25.53125 -6.453125 C 25.84375 -8.140625 26.34375 -9.835938 27.03125 -11.546875 L 26.859375 -11.71875 C 20.472656 -3.21875 14.6875 1.03125 9.5 1.03125 C 7.21875 1.03125 5.40625 0.046875 4.0625 -1.921875 C 2.71875 -3.890625 2.046875 -6.15625 2.046875 -8.71875 C 2.046875 -13.164062 3.34375 -17.769531 5.9375 -22.53125 C 8.539062 -27.289062 11.765625 -31.238281 15.609375 -34.375 C 19.453125 -37.519531 23.113281 -39.09375 26.59375 -39.09375 Z M 8.890625 -10.34375 C 8.890625 -8.125 9.398438 -6.5 10.421875 -5.46875 C 11.453125 -4.445312 12.65625 -3.9375 14.03125 -3.9375 C 15.789062 -3.9375 17.695312 -4.734375 19.75 -6.328125 C 21.8125 -7.921875 23.707031 -9.957031 25.4375 -12.4375 C 27.175781 -14.925781 28.476562 -17.453125 29.34375 -20.015625 C 30.195312 -22.523438 30.820312 -24.59375 31.21875 -26.21875 C 31.613281 -27.84375 31.8125 -29.425781 31.8125 -30.96875 C 31.8125 -33.1875 31.296875 -34.820312 30.265625 -35.875 C 29.242188 -36.9375 28.050781 -37.46875 26.6875 -37.46875 C 24.007812 -37.46875 21.285156 -35.828125 18.515625 -32.546875 C 15.753906 -29.265625 13.457031 -25.425781 11.625 -21.03125 C 9.800781 -16.644531 8.890625 -13.082031 8.890625 -10.34375 Z M 8.890625 -10.34375 "/></g></g></g><g fill="#eeede9" fill-opacity="1"><g transform="translate(126.101199, 77.945032)"><g><path d="M 13.421875 -19.25 C 17.015625 -25.175781 20.632812 -29.960938 24.28125 -33.609375 C 27.9375 -37.265625 31.332031 -39.09375 34.46875 -39.09375 C 35.78125 -39.09375 36.878906 -38.648438 37.765625 -37.765625 C 38.648438 -36.878906 39.09375 -35.609375 39.09375 -33.953125 C 39.09375 -32.410156 38.691406 -30.1875 37.890625 -27.28125 L 32.5 -8.8125 C 31.988281 -6.988281 31.734375 -5.734375 31.734375 -5.046875 C 31.734375 -4.535156 31.859375 -4.164062 32.109375 -3.9375 C 32.367188 -3.707031 32.640625 -3.59375 32.921875 -3.59375 C 33.609375 -3.59375 34.664062 -4.332031 36.09375 -5.8125 C 37.519531 -7.300781 38.488281 -8.472656 39 -9.328125 L 40.28125 -8.296875 C 38.519531 -5.847656 36.539062 -3.679688 34.34375 -1.796875 C 32.144531 0.0859375 30.078125 1.03125 28.140625 1.03125 C 27.222656 1.03125 26.453125 0.675781 25.828125 -0.03125 C 25.203125 -0.75 24.890625 -1.707031 24.890625 -2.90625 C 24.890625 -4.164062 25.203125 -5.847656 25.828125 -7.953125 L 31.640625 -28.390625 C 31.703125 -28.566406 31.847656 -29.039062 32.078125 -29.8125 C 32.304688 -30.582031 32.421875 -31.335938 32.421875 -32.078125 C 32.421875 -32.816406 32.21875 -33.382812 31.8125 -33.78125 C 31.414062 -34.1875 30.988281 -34.390625 30.53125 -34.390625 C 29.21875 -34.390625 27.320312 -33.273438 24.84375 -31.046875 C 22.363281 -28.828125 19.957031 -26.035156 17.625 -22.671875 C 15.625 -19.867188 14.007812 -17.285156 12.78125 -14.921875 C 11.5625 -12.554688 10.46875 -9.691406 9.5 -6.328125 C 8.75 -3.878906 8.148438 -1.769531 7.703125 0 L 1.109375 0 L 9.234375 -28.484375 C 9.296875 -28.648438 9.492188 -29.375 9.828125 -30.65625 C 10.171875 -31.945312 10.34375 -32.875 10.34375 -33.4375 C 10.34375 -34.125 10.097656 -34.648438 9.609375 -35.015625 C 9.128906 -35.390625 8.492188 -35.578125 7.703125 -35.578125 C 6.898438 -35.578125 5.757812 -35.519531 4.28125 -35.40625 L 4.28125 -36.953125 L 17.359375 -39.09375 L 18.90625 -39.09375 L 13.25 -19.421875 Z M 13.421875 -19.25 "/></g></g></g><g fill="#eeede9" fill-opacity="1"><g transform="translate(181.800153, 79.261624)"><g><path d="M 15.359375 0 L 0.78125 -38.71875 L 11.046875 -38.71875 L 20.859375 -10.03125 L 19.75 -10.03125 L 30.265625 -38.71875 L 37.625 -38.71875 L 47.96875 -10.03125 L 47.03125 -10.03125 L 56.828125 -38.71875 L 66.625 -38.71875 L 52.203125 0 L 43.421875 0 L 32.296875 -29.625 L 35.125 -29.625 L 24.0625 0 Z M 15.359375 0 "/></g></g></g><g fill="#eeede9" fill-opacity="1"><g transform="translate(243.026627, 79.261624)"><g><path d="M 5.5625 0 L 5.5625 -55.265625 L 15.515625 -55.265625 L 15.515625 -31.125 L 14.96875 -31.125 C 16.175781 -33.789062 17.976562 -35.851562 20.375 -37.3125 C 22.78125 -38.78125 25.523438 -39.515625 28.609375 -39.515625 C 31.742188 -39.515625 34.359375 -38.925781 36.453125 -37.75 C 38.546875 -36.570312 40.113281 -34.78125 41.15625 -32.375 C 42.195312 -29.96875 42.71875 -26.9375 42.71875 -23.28125 L 42.71875 0 L 32.53125 0 L 32.53125 -22.8125 C 32.53125 -24.75 32.28125 -26.34375 31.78125 -27.59375 C 31.289062 -28.84375 30.519531 -29.78125 29.46875 -30.40625 C 28.425781 -31.039062 27.070312 -31.359375 25.40625 -31.359375 C 23.519531 -31.359375 21.84375 -30.9375 20.375 -30.09375 C 18.914062 -29.257812 17.78125 -28.082031 16.96875 -26.5625 C 16.15625 -25.050781 15.75 -23.332031 15.75 -21.40625 L 15.75 0 Z M 5.5625 0 "/></g></g></g><g fill="#eeede9" fill-opacity="1"><g transform="translate(284.889409, 79.261624)"><g><path d="M 4.859375 -46.71875 L 4.859375 -56.75 L 16.390625 -56.75 L 16.390625 -46.71875 Z M 5.5625 0 L 5.5625 -38.71875 L 15.75 -38.71875 L 15.75 0 Z M 5.5625 0 "/></g></g></g><g fill="#eeede9" fill-opacity="1"><g transform="translate(299.940913, 79.261624)"><g><path d="M 23.671875 0.78125 C 18.390625 0.78125 14.457031 -0.535156 11.875 -3.171875 C 9.289062 -5.816406 8 -9.644531 8 -14.65625 L 8 -30.8125 L 0.546875 -30.8125 L 0.546875 -38.71875 L 8.3125 -38.71875 L 8.3125 -49.9375 L 18.1875 -49.9375 L 18.1875 -38.71875 L 30.65625 -38.71875 L 30.65625 -30.8125 L 18.1875 -30.8125 L 18.1875 -15.125 C 18.1875 -12.613281 18.757812 -10.742188 19.90625 -9.515625 C 21.0625 -8.296875 22.863281 -7.6875 25.3125 -7.6875 C 26.207031 -7.6875 27.082031 -7.773438 27.9375 -7.953125 C 28.800781 -8.140625 29.679688 -8.363281 30.578125 -8.625 L 32.0625 -1.015625 C 30.96875 -0.441406 29.675781 0 28.1875 0.3125 C 26.695312 0.625 25.191406 0.78125 23.671875 0.78125 Z M 23.671875 0.78125 "/></g></g></g><g fill="#eeede9" fill-opacity="1"><g transform="translate(325.81098, 79.261624)"><g><path d="M 25.3125 0.78125 C 20.71875 0.78125 16.785156 -0.0234375 13.515625 -1.640625 C 10.253906 -3.265625 7.757812 -5.59375 6.03125 -8.625 C 4.3125 -11.65625 3.453125 -15.234375 3.453125 -19.359375 C 3.453125 -23.273438 4.273438 -26.734375 5.921875 -29.734375 C 7.566406 -32.742188 9.878906 -35.125 12.859375 -36.875 C 15.835938 -38.632812 19.3125 -39.515625 23.28125 -39.515625 C 26.988281 -39.515625 30.203125 -38.71875 32.921875 -37.125 C 35.640625 -35.53125 37.742188 -33.253906 39.234375 -30.296875 C 40.722656 -27.347656 41.46875 -23.832031 41.46875 -19.75 L 41.46875 -16.703125 L 11.609375 -16.703125 L 11.609375 -22.734375 L 34.25 -22.734375 L 33 -21.484375 C 33 -25.085938 32.175781 -27.816406 30.53125 -29.671875 C 28.882812 -31.523438 26.546875 -32.453125 23.515625 -32.453125 C 21.367188 -32.453125 19.507812 -31.96875 17.9375 -31 C 16.375 -30.03125 15.160156 -28.65625 14.296875 -26.875 C 13.441406 -25.101562 13.015625 -22.9375 13.015625 -20.375 L 13.015625 -19.59375 C 13.015625 -16.71875 13.484375 -14.351562 14.421875 -12.5 C 15.359375 -10.644531 16.769531 -9.273438 18.65625 -8.390625 C 20.539062 -7.503906 22.84375 -7.0625 25.5625 -7.0625 C 27.644531 -7.0625 29.769531 -7.347656 31.9375 -7.921875 C 34.113281 -8.492188 36.085938 -9.457031 37.859375 -10.8125 L 40.6875 -3.921875 C 38.75 -2.398438 36.378906 -1.234375 33.578125 -0.421875 C 30.785156 0.378906 28.03125 0.78125 25.3125 0.78125 Z M 25.3125 0.78125 "/></g></g></g><g fill="#eeede9" fill-opacity="1"><g transform="translate(6.252735, 104.56384)"><g><path d="M 1.234375 0 L 1.234375 -10.046875 L 3.03125 -10.046875 L 6.5625 -3.3125 L 6.28125 -3.3125 L 9.796875 -10.046875 L 11.578125 -10.046875 L 11.578125 0 L 9.8125 0 L 9.8125 -7.25 L 10 -7.25 L 7 -1.5625 L 5.8125 -1.5625 L 2.78125 -7.265625 L 2.984375 -7.265625 L 2.984375 0 Z M 1.234375 0 "/></g></g></g><g fill="#eeede9" fill-opacity="1"><g transform="translate(20.47394, 104.56384)"><g><path d="M 0.109375 0 L 4.640625 -10.046875 L 6.234375 -10.046875 L 10.765625 0 L 8.84375 0 L 7.640625 -2.828125 L 8.4375 -2.234375 L 2.421875 -2.234375 L 3.21875 -2.828125 L 2.03125 0 Z M 5.421875 -8.03125 L 3.421875 -3.3125 L 3.046875 -3.765625 L 7.8125 -3.765625 L 7.453125 -3.3125 L 5.453125 -8.03125 Z M 5.421875 -8.03125 "/></g></g></g><g fill="#eeede9" fill-opacity="1"><g transform="translate(32.771516, 104.56384)"><g><path d="M 1.21875 0 L 1.21875 -10.046875 L 5.640625 -10.046875 C 6.765625 -10.046875 7.628906 -9.785156 8.234375 -9.265625 C 8.835938 -8.742188 9.140625 -8.003906 9.140625 -7.046875 C 9.140625 -6.460938 9.015625 -5.960938 8.765625 -5.546875 C 8.515625 -5.128906 8.164062 -4.800781 7.71875 -4.5625 C 7.269531 -4.332031 6.734375 -4.195312 6.109375 -4.15625 L 6.203125 -4.28125 L 6.546875 -4.265625 C 6.859375 -4.242188 7.132812 -4.144531 7.375 -3.96875 C 7.613281 -3.789062 7.832031 -3.515625 8.03125 -3.140625 L 9.734375 0 L 7.671875 0 L 5.984375 -3.140625 C 5.867188 -3.359375 5.738281 -3.523438 5.59375 -3.640625 C 5.457031 -3.753906 5.296875 -3.835938 5.109375 -3.890625 C 4.929688 -3.941406 4.722656 -3.96875 4.484375 -3.96875 L 3.09375 -3.96875 L 3.09375 0 Z M 3.09375 -5.390625 L 5.375 -5.390625 C 6.019531 -5.390625 6.5 -5.519531 6.8125 -5.78125 C 7.132812 -6.050781 7.296875 -6.453125 7.296875 -6.984375 C 7.296875 -7.503906 7.132812 -7.890625 6.8125 -8.140625 C 6.488281 -8.398438 6.003906 -8.53125 5.359375 -8.53125 L 3.09375 -8.53125 Z M 3.09375 -5.390625 "/></g></g></g><g fill="#eeede9" fill-opacity="1"><g transform="translate(44.299627, 104.56384)"><g><path d="M 1.21875 0 L 1.21875 -10.046875 L 3.09375 -10.046875 L 3.09375 -5.625 L 3.140625 -5.625 L 7.515625 -10.046875 L 9.796875 -10.046875 L 4.484375 -4.75 L 4.578125 -5.640625 L 10.078125 0 L 7.703125 0 L 3.140625 -4.625 L 3.09375 -4.625 L 3.09375 0 Z M 1.21875 0 "/></g></g></g><g fill="#eeede9" fill-opacity="1"><g transform="translate(55.528519, 104.56384)"><g><path d="M 1.21875 0 L 1.21875 -10.046875 L 8.015625 -10.046875 L 8.015625 -8.515625 L 3.03125 -8.515625 L 3.03125 -5.859375 L 7.6875 -5.859375 L 7.6875 -4.328125 L 3.03125 -4.328125 L 3.03125 -1.53125 L 8.015625 -1.53125 L 8.015625 0 Z M 1.21875 0 "/></g></g></g><g fill="#eeede9" fill-opacity="1"><g transform="translate(65.759951, 104.56384)"><g><path d="M 3.640625 0 L 3.640625 -8.46875 L 0.203125 -8.46875 L 0.203125 -10.046875 L 8.953125 -10.046875 L 8.953125 -8.46875 L 5.515625 -8.46875 L 5.515625 0 Z M 3.640625 0 "/></g></g></g><g fill="#eeede9" fill-opacity="1"><g transform="translate(76.319118, 104.56384)"><g><path d="M 1.21875 0 L 1.21875 -10.046875 L 3.09375 -10.046875 L 3.09375 0 Z M 1.21875 0 "/></g></g></g><g fill="#eeede9" fill-opacity="1"><g transform="translate(82.033581, 104.56384)"><g><path d="M 1.21875 0 L 1.21875 -10.046875 L 2.703125 -10.046875 L 8.328125 -2.6875 L 8.09375 -2.6875 L 8.09375 -10.046875 L 9.875 -10.046875 L 9.875 0 L 8.34375 0 L 2.78125 -7.328125 L 2.984375 -7.328125 L 2.984375 0 Z M 1.21875 0 "/></g></g></g><g fill="#eeede9" fill-opacity="1"><g transform="translate(94.544893, 104.56384)"><g><path d="M 6.015625 0.140625 C 4.921875 0.140625 3.988281 -0.0664062 3.21875 -0.484375 C 2.457031 -0.898438 1.875 -1.492188 1.46875 -2.265625 C 1.070312 -3.035156 0.875 -3.953125 0.875 -5.015625 C 0.875 -6.078125 1.078125 -6.992188 1.484375 -7.765625 C 1.890625 -8.546875 2.472656 -9.144531 3.234375 -9.5625 C 4.003906 -9.976562 4.921875 -10.1875 5.984375 -10.1875 C 6.472656 -10.1875 6.9375 -10.140625 7.375 -10.046875 C 7.820312 -9.960938 8.234375 -9.835938 8.609375 -9.671875 C 8.984375 -9.503906 9.304688 -9.296875 9.578125 -9.046875 L 8.96875 -7.59375 C 8.507812 -7.9375 8.039062 -8.179688 7.5625 -8.328125 C 7.09375 -8.472656 6.570312 -8.546875 6 -8.546875 C 4.96875 -8.546875 4.175781 -8.242188 3.625 -7.640625 C 3.082031 -7.035156 2.8125 -6.160156 2.8125 -5.015625 C 2.8125 -3.835938 3.085938 -2.953125 3.640625 -2.359375 C 4.203125 -1.765625 5.03125 -1.46875 6.125 -1.46875 C 6.550781 -1.46875 6.960938 -1.503906 7.359375 -1.578125 C 7.753906 -1.648438 8.132812 -1.75 8.5 -1.875 L 8.078125 -1.046875 L 8.078125 -4.078125 L 5.796875 -4.078125 L 5.796875 -5.53125 L 9.671875 -5.53125 L 9.671875 -0.59375 C 9.367188 -0.445312 9.015625 -0.316406 8.609375 -0.203125 C 8.210938 -0.0976562 7.789062 -0.015625 7.34375 0.046875 C 6.90625 0.109375 6.460938 0.140625 6.015625 0.140625 Z M 6.015625 0.140625 "/></g></g></g><g fill="#eeede9" fill-opacity="1"><g transform="translate(106.756971, 104.56384)"><g/></g></g><g fill="#eeede9" fill-opacity="1"><g transform="translate(112.200698, 104.56384)"><g><path d="M 1.28125 2.5625 L 1.28125 -10.046875 L 3.03125 -10.046875 L 3.03125 2.5625 Z M 1.28125 2.5625 "/></g></g></g><g fill="#eeede9" fill-opacity="1"><g transform="translate(117.943661, 104.56384)"><g/></g></g><g fill="#eeede9" fill-opacity="1"><g transform="translate(123.387388, 104.56384)"><g><path d="M 4.75 0.140625 C 4.207031 0.140625 3.6875 0.0976562 3.1875 0.015625 C 2.695312 -0.0664062 2.242188 -0.1875 1.828125 -0.34375 C 1.421875 -0.507812 1.054688 -0.707031 0.734375 -0.9375 L 1.328125 -2.4375 C 1.640625 -2.21875 1.972656 -2.035156 2.328125 -1.890625 C 2.691406 -1.742188 3.078125 -1.632812 3.484375 -1.5625 C 3.890625 -1.488281 4.3125 -1.453125 4.75 -1.453125 C 5.46875 -1.453125 6 -1.570312 6.34375 -1.8125 C 6.695312 -2.0625 6.875 -2.394531 6.875 -2.8125 C 6.875 -3.039062 6.820312 -3.226562 6.71875 -3.375 C 6.613281 -3.519531 6.4375 -3.644531 6.1875 -3.75 C 5.945312 -3.851562 5.632812 -3.941406 5.25 -4.015625 L 3.640625 -4.328125 C 2.710938 -4.515625 2.03125 -4.84375 1.59375 -5.3125 C 1.15625 -5.78125 0.9375 -6.382812 0.9375 -7.125 C 0.9375 -7.738281 1.109375 -8.273438 1.453125 -8.734375 C 1.796875 -9.203125 2.269531 -9.5625 2.875 -9.8125 C 3.476562 -10.0625 4.171875 -10.1875 4.953125 -10.1875 C 5.421875 -10.1875 5.867188 -10.144531 6.296875 -10.0625 C 6.722656 -9.976562 7.113281 -9.847656 7.46875 -9.671875 C 7.832031 -9.503906 8.15625 -9.300781 8.4375 -9.0625 L 7.84375 -7.609375 C 7.4375 -7.953125 6.992188 -8.203125 6.515625 -8.359375 C 6.035156 -8.515625 5.507812 -8.59375 4.9375 -8.59375 C 4.507812 -8.59375 4.132812 -8.535156 3.8125 -8.421875 C 3.488281 -8.304688 3.238281 -8.140625 3.0625 -7.921875 C 2.894531 -7.710938 2.8125 -7.460938 2.8125 -7.171875 C 2.8125 -6.828125 2.921875 -6.554688 3.140625 -6.359375 C 3.367188 -6.171875 3.757812 -6.019531 4.3125 -5.90625 L 5.90625 -5.59375 C 6.863281 -5.40625 7.570312 -5.09375 8.03125 -4.65625 C 8.5 -4.21875 8.734375 -3.640625 8.734375 -2.921875 C 8.734375 -2.316406 8.566406 -1.78125 8.234375 -1.3125 C 7.910156 -0.851562 7.445312 -0.492188 6.84375 -0.234375 C 6.25 0.015625 5.550781 0.140625 4.75 0.140625 Z M 4.75 0.140625 "/></g></g></g><g fill="#eeede9" fill-opacity="1"><g transform="translate(134.131808, 104.56384)"><g><path d="M 5.75 0.140625 C 5 0.140625 4.320312 0.0195312 3.71875 -0.21875 C 3.125 -0.457031 2.613281 -0.800781 2.1875 -1.25 C 1.757812 -1.707031 1.429688 -2.253906 1.203125 -2.890625 C 0.984375 -3.523438 0.875 -4.238281 0.875 -5.03125 C 0.875 -5.820312 0.984375 -6.53125 1.203125 -7.15625 C 1.429688 -7.789062 1.757812 -8.332031 2.1875 -8.78125 C 2.613281 -9.238281 3.125 -9.585938 3.71875 -9.828125 C 4.320312 -10.066406 5 -10.1875 5.75 -10.1875 C 6.476562 -10.1875 7.140625 -10.066406 7.734375 -9.828125 C 8.335938 -9.585938 8.851562 -9.242188 9.28125 -8.796875 C 9.707031 -8.347656 10.035156 -7.804688 10.265625 -7.171875 C 10.492188 -6.546875 10.609375 -5.835938 10.609375 -5.046875 C 10.609375 -4.253906 10.492188 -3.539062 10.265625 -2.90625 C 10.035156 -2.269531 9.707031 -1.722656 9.28125 -1.265625 C 8.851562 -0.804688 8.335938 -0.457031 7.734375 -0.21875 C 7.140625 0.0195312 6.476562 0.140625 5.75 0.140625 Z M 5.75 -1.484375 C 6.363281 -1.484375 6.882812 -1.617188 7.3125 -1.890625 C 7.75 -2.171875 8.082031 -2.578125 8.3125 -3.109375 C 8.539062 -3.640625 8.65625 -4.28125 8.65625 -5.03125 C 8.65625 -5.789062 8.539062 -6.429688 8.3125 -6.953125 C 8.09375 -7.484375 7.765625 -7.882812 7.328125 -8.15625 C 6.890625 -8.425781 6.363281 -8.5625 5.75 -8.5625 C 5.125 -8.5625 4.59375 -8.425781 4.15625 -8.15625 C 3.71875 -7.882812 3.382812 -7.484375 3.15625 -6.953125 C 2.925781 -6.429688 2.8125 -5.789062 2.8125 -5.03125 C 2.8125 -4.28125 2.925781 -3.640625 3.15625 -3.109375 C 3.382812 -2.578125 3.71875 -2.171875 4.15625 -1.890625 C 4.59375 -1.617188 5.125 -1.484375 5.75 -1.484375 Z M 5.75 -1.484375 "/></g></g></g><g fill="#eeede9" fill-opacity="1"><g transform="translate(147.027837, 104.56384)"><g><path d="M 5.859375 0.140625 C 4.828125 0.140625 3.9375 -0.0664062 3.1875 -0.484375 C 2.445312 -0.898438 1.875 -1.492188 1.46875 -2.265625 C 1.070312 -3.046875 0.875 -3.96875 0.875 -5.03125 C 0.875 -6.09375 1.070312 -7.007812 1.46875 -7.78125 C 1.875 -8.550781 2.445312 -9.144531 3.1875 -9.5625 C 3.925781 -9.976562 4.816406 -10.1875 5.859375 -10.1875 C 6.535156 -10.1875 7.171875 -10.085938 7.765625 -9.890625 C 8.359375 -9.691406 8.859375 -9.394531 9.265625 -9 L 8.640625 -7.53125 C 8.210938 -7.882812 7.78125 -8.140625 7.34375 -8.296875 C 6.90625 -8.453125 6.425781 -8.53125 5.90625 -8.53125 C 4.9375 -8.53125 4.179688 -8.226562 3.640625 -7.625 C 3.097656 -7.019531 2.828125 -6.15625 2.828125 -5.03125 C 2.828125 -3.894531 3.09375 -3.023438 3.625 -2.421875 C 4.164062 -1.816406 4.925781 -1.515625 5.90625 -1.515625 C 6.425781 -1.515625 6.90625 -1.59375 7.34375 -1.75 C 7.78125 -1.90625 8.210938 -2.160156 8.640625 -2.515625 L 9.265625 -1.046875 C 8.859375 -0.660156 8.359375 -0.363281 7.765625 -0.15625 C 7.171875 0.0390625 6.535156 0.140625 5.859375 0.140625 Z M 5.859375 0.140625 "/></g></g></g><g fill="#eeede9" fill-opacity="1"><g transform="translate(158.356469, 104.56384)"><g><path d="M 1.21875 0 L 1.21875 -10.046875 L 3.09375 -10.046875 L 3.09375 0 Z M 1.21875 0 "/></g></g></g><g fill="#eeede9" fill-opacity="1"><g transform="translate(164.070931, 104.56384)"><g><path d="M 0.109375 0 L 4.640625 -10.046875 L 6.234375 -10.046875 L 10.765625 0 L 8.84375 0 L 7.640625 -2.828125 L 8.4375 -2.234375 L 2.421875 -2.234375 L 3.21875 -2.828125 L 2.03125 0 Z M 5.421875 -8.03125 L 3.421875 -3.3125 L 3.046875 -3.765625 L 7.8125 -3.765625 L 7.453125 -3.3125 L 5.453125 -8.03125 Z M 5.421875 -8.03125 "/></g></g></g><g fill="#eeede9" fill-opacity="1"><g transform="translate(176.368507, 104.56384)"><g><path d="M 1.21875 0 L 1.21875 -10.046875 L 3.09375 -10.046875 L 3.09375 -1.609375 L 7.90625 -1.609375 L 7.90625 0 Z M 1.21875 0 "/></g></g></g><g fill="#eeede9" fill-opacity="1"><g transform="translate(186.086985, 104.56384)"><g/></g></g><g fill="#eeede9" fill-opacity="1"><g transform="translate(191.530712, 104.56384)"><g><path d="M 1.234375 0 L 1.234375 -10.046875 L 3.03125 -10.046875 L 6.5625 -3.3125 L 6.28125 -3.3125 L 9.796875 -10.046875 L 11.578125 -10.046875 L 11.578125 0 L 9.8125 0 L 9.8125 -7.25 L 10 -7.25 L 7 -1.5625 L 5.8125 -1.5625 L 2.78125 -7.265625 L 2.984375 -7.265625 L 2.984375 0 Z M 1.234375 0 "/></g></g></g><g fill="#eeede9" fill-opacity="1"><g transform="translate(205.751918, 104.56384)"><g><path d="M 1.21875 0 L 1.21875 -10.046875 L 8.015625 -10.046875 L 8.015625 -8.515625 L 3.03125 -8.515625 L 3.03125 -5.859375 L 7.6875 -5.859375 L 7.6875 -4.328125 L 3.03125 -4.328125 L 3.03125 -1.53125 L 8.015625 -1.53125 L 8.015625 0 Z M 1.21875 0 "/></g></g></g><g fill="#eeede9" fill-opacity="1"><g transform="translate(216.054607, 104.56384)"><g><path d="M 1.21875 0 L 1.21875 -10.046875 L 5.03125 -10.046875 C 6.144531 -10.046875 7.085938 -9.847656 7.859375 -9.453125 C 8.640625 -9.066406 9.234375 -8.5 9.640625 -7.75 C 10.054688 -7.007812 10.265625 -6.101562 10.265625 -5.03125 C 10.265625 -3.957031 10.054688 -3.046875 9.640625 -2.296875 C 9.234375 -1.546875 8.640625 -0.972656 7.859375 -0.578125 C 7.085938 -0.191406 6.144531 0 5.03125 0 Z M 3.09375 -1.5625 L 4.921875 -1.5625 C 6.035156 -1.5625 6.878906 -1.847656 7.453125 -2.421875 C 8.023438 -3.003906 8.3125 -3.875 8.3125 -5.03125 C 8.3125 -6.1875 8.023438 -7.050781 7.453125 -7.625 C 6.878906 -8.195312 6.035156 -8.484375 4.921875 -8.484375 L 3.09375 -8.484375 Z M 3.09375 -1.5625 "/></g></g></g><g fill="#eeede9" fill-opacity="1"><g transform="translate(228.594419, 104.56384)"><g><path d="M 1.21875 0 L 1.21875 -10.046875 L 3.09375 -10.046875 L 3.09375 0 Z M 1.21875 0 "/></g></g></g><g fill="#eeede9" fill-opacity="1"><g transform="translate(234.308882, 104.56384)"><g><path d="M 0.109375 0 L 4.640625 -10.046875 L 6.234375 -10.046875 L 10.765625 0 L 8.84375 0 L 7.640625 -2.828125 L 8.4375 -2.234375 L 2.421875 -2.234375 L 3.21875 -2.828125 L 2.03125 0 Z M 5.421875 -8.03125 L 3.421875 -3.3125 L 3.046875 -3.765625 L 7.8125 -3.765625 L 7.453125 -3.3125 L 5.453125 -8.03125 Z M 5.421875 -8.03125 "/></g></g></g><g fill="#eeede9" fill-opacity="1"><g transform="translate(246.606457, 104.56384)"><g/></g></g><g fill="#eeede9" fill-opacity="1"><g transform="translate(252.050185, 104.56384)"><g><path d="M 1.28125 2.5625 L 1.28125 -10.046875 L 3.03125 -10.046875 L 3.03125 2.5625 Z M 1.28125 2.5625 "/></g></g></g><g fill="#eeede9" fill-opacity="1"><g transform="translate(257.793147, 104.56384)"><g/></g></g><g fill="#eeede9" fill-opacity="1"><g transform="translate(263.236875, 104.56384)"><g><path d="M 5.859375 0.140625 C 4.828125 0.140625 3.9375 -0.0664062 3.1875 -0.484375 C 2.445312 -0.898438 1.875 -1.492188 1.46875 -2.265625 C 1.070312 -3.046875 0.875 -3.96875 0.875 -5.03125 C 0.875 -6.09375 1.070312 -7.007812 1.46875 -7.78125 C 1.875 -8.550781 2.445312 -9.144531 3.1875 -9.5625 C 3.925781 -9.976562 4.816406 -10.1875 5.859375 -10.1875 C 6.535156 -10.1875 7.171875 -10.085938 7.765625 -9.890625 C 8.359375 -9.691406 8.859375 -9.394531 9.265625 -9 L 8.640625 -7.53125 C 8.210938 -7.882812 7.78125 -8.140625 7.34375 -8.296875 C 6.90625 -8.453125 6.425781 -8.53125 5.90625 -8.53125 C 4.9375 -8.53125 4.179688 -8.226562 3.640625 -7.625 C 3.097656 -7.019531 2.828125 -6.15625 2.828125 -5.03125 C 2.828125 -3.894531 3.09375 -3.023438 3.625 -2.421875 C 4.164062 -1.816406 4.925781 -1.515625 5.90625 -1.515625 C 6.425781 -1.515625 6.90625 -1.59375 7.34375 -1.75 C 7.78125 -1.90625 8.210938 -2.160156 8.640625 -2.515625 L 9.265625 -1.046875 C 8.859375 -0.660156 8.359375 -0.363281 7.765625 -0.15625 C 7.171875 0.0390625 6.535156 0.140625 5.859375 0.140625 Z M 5.859375 0.140625 "/></g></g></g><g fill="#eeede9" fill-opacity="1"><g transform="translate(274.237723, 104.56384)"><g><path d="M 5.75 0.140625 C 5 0.140625 4.320312 0.0195312 3.71875 -0.21875 C 3.125 -0.457031 2.613281 -0.800781 2.1875 -1.25 C 1.757812 -1.707031 1.429688 -2.253906 1.203125 -2.890625 C 0.984375 -3.523438 0.875 -4.238281 0.875 -5.03125 C 0.875 -5.820312 0.984375 -6.53125 1.203125 -7.15625 C 1.429688 -7.789062 1.757812 -8.332031 2.1875 -8.78125 C 2.613281 -9.238281 3.125 -9.585938 3.71875 -9.828125 C 4.320312 -10.066406 5 -10.1875 5.75 -10.1875 C 6.476562 -10.1875 7.140625 -10.066406 7.734375 -9.828125 C 8.335938 -9.585938 8.851562 -9.242188 9.28125 -8.796875 C 9.707031 -8.347656 10.035156 -7.804688 10.265625 -7.171875 C 10.492188 -6.546875 10.609375 -5.835938 10.609375 -5.046875 C 10.609375 -4.253906 10.492188 -3.539062 10.265625 -2.90625 C 10.035156 -2.269531 9.707031 -1.722656 9.28125 -1.265625 C 8.851562 -0.804688 8.335938 -0.457031 7.734375 -0.21875 C 7.140625 0.0195312 6.476562 0.140625 5.75 0.140625 Z M 5.75 -1.484375 C 6.363281 -1.484375 6.882812 -1.617188 7.3125 -1.890625 C 7.75 -2.171875 8.082031 -2.578125 8.3125 -3.109375 C 8.539062 -3.640625 8.65625 -4.28125 8.65625 -5.03125 C 8.65625 -5.789062 8.539062 -6.429688 8.3125 -6.953125 C 8.09375 -7.484375 7.765625 -7.882812 7.328125 -8.15625 C 6.890625 -8.425781 6.363281 -8.5625 5.75 -8.5625 C 5.125 -8.5625 4.59375 -8.425781 4.15625 -8.15625 C 3.71875 -7.882812 3.382812 -7.484375 3.15625 -6.953125 C 2.925781 -6.429688 2.8125 -5.789062 2.8125 -5.03125 C 2.8125 -4.28125 2.925781 -3.640625 3.15625 -3.109375 C 3.382812 -2.578125 3.71875 -2.171875 4.15625 -1.890625 C 4.59375 -1.617188 5.125 -1.484375 5.75 -1.484375 Z M 5.75 -1.484375 "/></g></g></g><g fill="#eeede9" fill-opacity="1"><g transform="translate(287.133736, 104.56384)"><g><path d="M 1.21875 0 L 1.21875 -10.046875 L 2.703125 -10.046875 L 8.328125 -2.6875 L 8.09375 -2.6875 L 8.09375 -10.046875 L 9.875 -10.046875 L 9.875 0 L 8.34375 0 L 2.78125 -7.328125 L 2.984375 -7.328125 L 2.984375 0 Z M 1.21875 0 "/></g></g></g><g fill="#eeede9" fill-opacity="1"><g transform="translate(299.645048, 104.56384)"><g><path d="M 4.75 0.140625 C 4.207031 0.140625 3.6875 0.0976562 3.1875 0.015625 C 2.695312 -0.0664062 2.242188 -0.1875 1.828125 -0.34375 C 1.421875 -0.507812 1.054688 -0.707031 0.734375 -0.9375 L 1.328125 -2.4375 C 1.640625 -2.21875 1.972656 -2.035156 2.328125 -1.890625 C 2.691406 -1.742188 3.078125 -1.632812 3.484375 -1.5625 C 3.890625 -1.488281 4.3125 -1.453125 4.75 -1.453125 C 5.46875 -1.453125 6 -1.570312 6.34375 -1.8125 C 6.695312 -2.0625 6.875 -2.394531 6.875 -2.8125 C 6.875 -3.039062 6.820312 -3.226562 6.71875 -3.375 C 6.613281 -3.519531 6.4375 -3.644531 6.1875 -3.75 C 5.945312 -3.851562 5.632812 -3.941406 5.25 -4.015625 L 3.640625 -4.328125 C 2.710938 -4.515625 2.03125 -4.84375 1.59375 -5.3125 C 1.15625 -5.78125 0.9375 -6.382812 0.9375 -7.125 C 0.9375 -7.738281 1.109375 -8.273438 1.453125 -8.734375 C 1.796875 -9.203125 2.269531 -9.5625 2.875 -9.8125 C 3.476562 -10.0625 4.171875 -10.1875 4.953125 -10.1875 C 5.421875 -10.1875 5.867188 -10.144531 6.296875 -10.0625 C 6.722656 -9.976562 7.113281 -9.847656 7.46875 -9.671875 C 7.832031 -9.503906 8.15625 -9.300781 8.4375 -9.0625 L 7.84375 -7.609375 C 7.4375 -7.953125 6.992188 -8.203125 6.515625 -8.359375 C 6.035156 -8.515625 5.507812 -8.59375 4.9375 -8.59375 C 4.507812 -8.59375 4.132812 -8.535156 3.8125 -8.421875 C 3.488281 -8.304688 3.238281 -8.140625 3.0625 -7.921875 C 2.894531 -7.710938 2.8125 -7.460938 2.8125 -7.171875 C 2.8125 -6.828125 2.921875 -6.554688 3.140625 -6.359375 C 3.367188 -6.171875 3.757812 -6.019531 4.3125 -5.90625 L 5.90625 -5.59375 C 6.863281 -5.40625 7.570312 -5.09375 8.03125 -4.65625 C 8.5 -4.21875 8.734375 -3.640625 8.734375 -2.921875 C 8.734375 -2.316406 8.566406 -1.78125 8.234375 -1.3125 C 7.910156 -0.851562 7.445312 -0.492188 6.84375 -0.234375 C 6.25 0.015625 5.550781 0.140625 4.75 0.140625 Z M 4.75 0.140625 "/></g></g></g><g fill="#eeede9" fill-opacity="1"><g transform="translate(310.389501, 104.56384)"><g><path d="M 5.375 0.140625 C 4 0.140625 2.941406 -0.210938 2.203125 -0.921875 C 1.472656 -1.628906 1.109375 -2.675781 1.109375 -4.0625 L 1.109375 -10.046875 L 3 -10.046875 L 3 -4.109375 C 3 -3.234375 3.203125 -2.582031 3.609375 -2.15625 C 4.015625 -1.726562 4.601562 -1.515625 5.375 -1.515625 C 6.15625 -1.515625 6.742188 -1.726562 7.140625 -2.15625 C 7.546875 -2.582031 7.75 -3.234375 7.75 -4.109375 L 7.75 -10.046875 L 9.625 -10.046875 L 9.625 -4.0625 C 9.625 -2.6875 9.257812 -1.640625 8.53125 -0.921875 C 7.8125 -0.210938 6.757812 0.140625 5.375 0.140625 Z M 5.375 0.140625 "/></g></g></g><g fill="#eeede9" fill-opacity="1"><g transform="translate(322.544564, 104.56384)"><g><path d="M 1.21875 0 L 1.21875 -10.046875 L 3.09375 -10.046875 L 3.09375 -1.609375 L 7.90625 -1.609375 L 7.90625 0 Z M 1.21875 0 "/></g></g></g><g fill="#eeede9" fill-opacity="1"><g transform="translate(330.410406, 104.56384)"><g><path d="M 3.640625 0 L 3.640625 -8.46875 L 0.203125 -8.46875 L 0.203125 -10.046875 L 8.953125 -10.046875 L 8.953125 -8.46875 L 5.515625 -8.46875 L 5.515625 0 Z M 3.640625 0 "/></g></g></g><g fill="#eeede9" fill-opacity="1"><g transform="translate(340.96954, 104.56384)"><g><path d="M 1.21875 0 L 1.21875 -10.046875 L 3.09375 -10.046875 L 3.09375 0 Z M 1.21875 0 "/></g></g></g><g fill="#eeede9" fill-opacity="1"><g transform="translate(346.68402, 104.56384)"><g><path d="M 1.21875 0 L 1.21875 -10.046875 L 2.703125 -10.046875 L 8.328125 -2.6875 L 8.09375 -2.6875 L 8.09375 -10.046875 L 9.875 -10.046875 L 9.875 0 L 8.34375 0 L 2.78125 -7.328125 L 2.984375 -7.328125 L 2.984375 0 Z M 1.21875 0 "/></g></g></g><g fill="#eeede9" fill-opacity="1"><g transform="translate(359.195332, 104.56384)"><g><path d="M 6.015625 0.140625 C 4.921875 0.140625 3.988281 -0.0664062 3.21875 -0.484375 C 2.457031 -0.898438 1.875 -1.492188 1.46875 -2.265625 C 1.070312 -3.035156 0.875 -3.953125 0.875 -5.015625 C 0.875 -6.078125 1.078125 -6.992188 1.484375 -7.765625 C 1.890625 -8.546875 2.472656 -9.144531 3.234375 -9.5625 C 4.003906 -9.976562 4.921875 -10.1875 5.984375 -10.1875 C 6.472656 -10.1875 6.9375 -10.140625 7.375 -10.046875 C 7.820312 -9.960938 8.234375 -9.835938 8.609375 -9.671875 C 8.984375 -9.503906 9.304688 -9.296875 9.578125 -9.046875 L 8.96875 -7.59375 C 8.507812 -7.9375 8.039062 -8.179688 7.5625 -8.328125 C 7.09375 -8.472656 6.570312 -8.546875 6 -8.546875 C 4.96875 -8.546875 4.175781 -8.242188 3.625 -7.640625 C 3.082031 -7.035156 2.8125 -6.160156 2.8125 -5.015625 C 2.8125 -3.835938 3.085938 -2.953125 3.640625 -2.359375 C 4.203125 -1.765625 5.03125 -1.46875 6.125 -1.46875 C 6.550781 -1.46875 6.960938 -1.503906 7.359375 -1.578125 C 7.753906 -1.648438 8.132812 -1.75 8.5 -1.875 L 8.078125 -1.046875 L 8.078125 -4.078125 L 5.796875 -4.078125 L 5.796875 -5.53125 L 9.671875 -5.53125 L 9.671875 -0.59375 C 9.367188 -0.445312 9.015625 -0.316406 8.609375 -0.203125 C 8.210938 -0.0976562 7.789062 -0.015625 7.34375 0.046875 C 6.90625 0.109375 6.460938 0.140625 6.015625 0.140625 Z M 6.015625 0.140625 "/></g></g></g></g></g></g></svg>